<?xml version="1.0" encoding="utf-8"?>
<!-- Generator: Adobe Illustrator 16.0.0, SVG Export Plug-In . SVG Version: 6.00 Build 0)  -->
<!DOCTYPE svg PUBLIC "-//W3C//DTD SVG 1.1//EN" "http://www.w3.org/Graphics/SVG/1.1/DTD/svg11.dtd">
<svg version="1.1" id="Capa_1" xmlns="http://www.w3.org/2000/svg" xmlns:xlink="http://www.w3.org/1999/xlink" x="0px" y="0px"
	 width="25.16px" height="23.954px" viewBox="0 0 25.16 23.954" enable-background="new 0 0 25.16 23.954" xml:space="preserve">
<rect x="-0.405" y="-1.612" fill="#1B6606" width="27.09" height="27.255"/>
<g>
	<path fill="#FFFFFF" d="M2.965,18.784V5.228h3.293v10.703h5.246v2.853H2.965z"/>
	<path fill="#FFFFFF" d="M23.316,9.402c0,0.792-0.146,1.459-0.439,2.001c-0.294,0.542-0.689,0.98-1.188,1.312
		c-0.498,0.332-1.072,0.574-1.723,0.728c-0.651,0.153-1.328,0.229-2.029,0.229h-1.627v5.112h-3.275V5.228h4.979
		c0.74,0,1.433,0.073,2.077,0.22c0.645,0.148,1.206,0.383,1.685,0.709c0.479,0.325,0.855,0.754,1.131,1.282
		C23.18,7.969,23.316,8.624,23.316,9.402z M20.043,9.42c0-0.319-0.063-0.581-0.191-0.785s-0.3-0.362-0.517-0.478
		c-0.218-0.116-0.462-0.192-0.737-0.229c-0.274-0.039-0.559-0.058-0.852-0.058h-1.436v3.197h1.377c0.307,0,0.601-0.025,0.882-0.076
		c0.28-0.052,0.532-0.141,0.756-0.269c0.224-0.127,0.398-0.297,0.526-0.508C19.979,10.005,20.043,9.741,20.043,9.42z"/>
</g>
</svg>
